# xmcd
#
# Track frame offsets: 
#        150
#        13215
#        27640
#        44112
#        60693
#        72108
#        87393
#        103005
#        115917
#        129272
#        142307
#        153571
#        166831
#        183691
#        196763
#        202493
#
# Disc length: 2859 seconds
#
# Revision: 0
# Processed by: cddbd v1.5.2PL0 Copyright (c) Steve Scherf et al.
# Submitted via: ExactAudioCopy v1.0b3
#
DISCID=f80b2910
DTITLE=Justin David - Chapters
DYEAR=2009
DGENRE=Modern Country
TTITLE0=Red Neck Rock and Roll
TTITLE1=My Neck of the Woods
TTITLE2=Halfway Gone
TTITLE3=Truer Love Than Mine
TTITLE4=Driving My Life Away
TTITLE5=Run Out of Road
TTITLE6=Ain't It Amazing
TTITLE7=Ring of Fire
TTITLE8=Song for the Life
TTITLE9=So Easy
TTITLE10=Little Mountain Church House
TTITLE11=Girl From Little Rock
TTITLE12=Timing Is Everything
TTITLE13=Who Would You Be
TTITLE14=What a Friend We Have in Jesus
TTITLE15=Flamboyance (Bonus Track)
EXTD=
EXTT0=
EXTT1=
EXTT2=
EXTT3=
EXTT4=
EXTT5=
EXTT6=
EXTT7=
EXTT8=
EXTT9=
EXTT10=
EXTT11=
EXTT12=
EXTT13=
EXTT14=
EXTT15=
PLAYORDER=
